<?xml version="1.0" encoding="UTF-8" standalone="no"?>
<!-- Created with Inkscape (http://www.inkscape.org/) -->
<svg xmlns:dc="http://purl.org/dc/elements/1.1/" xmlns:cc="http://web.resource.org/cc/" xmlns:rdf="http://www.w3.org/1999/02/22-rdf-syntax-ns#" xmlns:svg="http://www.w3.org/2000/svg" xmlns="http://www.w3.org/2000/svg" xmlns:sodipodi="http://sodipodi.sourceforge.net/DTD/sodipodi-0.dtd" xmlns:inkscape="http://www.inkscape.org/namespaces/inkscape" width="581.63757" height="383.15509" id="svg2" sodipodi:version="0.32" inkscape:version="0.44.1" version="1.0" sodipodi:docbase="/home/marco/svg/2007" sodipodi:docname="rainbow-0.1.svg">
  <defs id="defs4"/>
  <sodipodi:namedview id="base" pagecolor="#ffffff" bordercolor="#666666" borderopacity="1.0" inkscape:pageopacity="0.0" inkscape:pageshadow="2" inkscape:zoom="0.7" inkscape:cx="185.18748" inkscape:cy="167.58626" inkscape:document-units="px" inkscape:current-layer="layer1" width="1052.3622px" height="744.09448px" showgrid="false" inkscape:window-width="965" inkscape:window-height="743" inkscape:window-x="0" inkscape:window-y="0"/>
  <metadata id="metadata7">
    <rdf:RDF>
      <cc:Work rdf:about="">
        <dc:format>image/svg+xml</dc:format>
        <dc:type rdf:resource="http://purl.org/dc/dcmitype/StillImage"/>
      </cc:Work>
    </rdf:RDF>
  </metadata>
  <g inkscape:label="Livello 1" inkscape:groupmode="layer" id="layer1" transform="translate(-71.6105, -82.3776)">
    <path style="fill:#f43622;fill-opacity:1;fill-rule:evenodd;stroke:none;stroke-width:1px;stroke-linecap:butt;stroke-linejoin:miter;stroke-opacity:1" d="M 524.01715,96.153858 C 510.58033,91.882881 494.20098,88.461516 474.61599,85.985572 C 116.49048,40.711177 80.827235,435.92481 71.679307,465.41952 C 71.686243,465.45635 72.199846,465.23157 72.966822,464.87869 C 85.384563,432.10904 168.75255,32.759423 536.18736,114.39441 C 548.10475,117.04216 558.7933,119.91409 568.37162,123.01154 C 560.14931,115.2432 540.84434,101.50249 524.01715,96.153858 z " id="path1874" sodipodi:nodetypes="csccscc"/>
    <path style="fill:#fda824;fill-opacity:1;fill-rule:evenodd;stroke:none;stroke-width:1px;stroke-linecap:butt;stroke-linejoin:miter;stroke-opacity:1" d="M 521.65923,122.16524 C 514.61097,120.01754 506.98615,117.97324 498.74858,116.04441 C 147.27889,33.748017 83.850033,437.04174 71.682439,465.42438 C 71.684821,465.45333 72.025278,465.35334 72.509588,465.19601 C 89.417515,428.50027 201.73061,33.50881 566.12792,157.00407 C 573.85732,159.62358 581.00712,162.26612 587.69901,164.96108 C 577.15691,152.0512 552.45383,131.54876 521.65923,122.16524 z " id="path2762" sodipodi:nodetypes="csccscc"/>
    <path style="fill:#fdf724;fill-opacity:1;fill-rule:evenodd;stroke:none;stroke-width:1px;stroke-linecap:butt;stroke-linejoin:miter;stroke-opacity:1" d="M 503.60892,151.35417 C 185.10437,50.592105 87.104687,439.51171 71.662056,465.41483 C 71.659844,465.45846 72.345821,465.3325 73.466533,465.10435 C 97.081118,423.288 265.51916,57.795516 582.21059,203.1612 C 589.95136,206.71432 596.98174,210.45382 603.53396,214.05674 C 592.1501,197.33889 567.757,174.96232 526.96126,159.48528 C 519.05101,156.4843 511.25303,153.77245 503.60892,151.35417 z " id="path2764" sodipodi:nodetypes="cccscsc"/>
    <path style="fill:#60fd24;fill-opacity:1;fill-rule:evenodd;stroke:none;stroke-width:1px;stroke-linecap:butt;stroke-linejoin:miter;stroke-opacity:1" d="M 489.08983,181.12171 C 215.4711,93.014481 93.50364,427.77024 71.610459,465.53264 C 102.64036,424.20066 322.81928,65.030768 608.82841,258.54209 C 612.99579,261.3617 616.93242,264.10282 620.71849,266.82485 C 612.96704,247.48073 590.01059,226.94882 547.33417,205.32542 C 527.20908,195.12839 507.78326,187.14113 489.08983,181.12171 z " id="path2766" sodipodi:nodetypes="ccscsc"/>
    <path style="fill:#24fdcf;fill-opacity:1;fill-rule:evenodd;stroke:none;stroke-width:1px;stroke-linecap:butt;stroke-linejoin:miter;stroke-opacity:1" d="M 487.82364,215.80729 C 239.4384,134.38292 90.758758,445.28565 71.662737,465.4127 C 267.2795,278.84116 365.52746,167.1859 632.25887,309.59328 C 621.79125,294.3927 603.48817,277.74569 575.8459,259.47194 C 545.26295,239.25418 515.90198,225.01178 487.82364,215.80729 z " id="path2768" sodipodi:nodetypes="cccsc"/>
    <path style="fill:#2446fd;fill-opacity:1;fill-rule:evenodd;stroke:none;stroke-width:1px;stroke-linecap:butt;stroke-linejoin:miter;stroke-opacity:1" d="M 483.28112,253.52517 C 260.95236,180.84695 92.030482,448.40513 71.661571,465.41636 C 71.657343,465.42669 71.836525,465.44424 71.909255,465.4625 C 103.82534,444.85395 367.31433,156.28718 643.18146,369.59033 C 633.95722,354.70454 618.65603,337.96286 596.29114,319.12558 C 557.46568,286.42407 519.66218,265.41797 483.28112,253.52517 z " id="path2770"/>
    <path style="fill:#6724fd;fill-opacity:1;fill-rule:evenodd;stroke:none;stroke-width:1px;stroke-linecap:butt;stroke-linejoin:miter;stroke-opacity:1" d="M 471.01342,292.94459 C 274.33949,233.35896 95.49877,448.16953 71.660951,465.4183 C 117.25616,440.53665 420.2541,207.24003 653.24804,449.25424 C 646.99905,431.61176 633.0071,410.45584 609.62756,385.2362 C 563.6135,335.60059 516.82921,306.82524 471.01342,292.94459 z " id="path2772"/>
  </g>
</svg>